<?xml version="1.0" encoding="utf-8"?>
<!-- Generator: Adobe Illustrator 27.9.0, SVG Export Plug-In . SVG Version: 6.00 Build 0)  -->
<svg version="1.1" id="Layer_1" xmlns="http://www.w3.org/2000/svg" xmlns:xlink="http://www.w3.org/1999/xlink" x="0px" y="0px"
	 viewBox="0 0 1200 1200" style="enable-background:new 0 0 1200 1200;" xml:space="preserve">
<g>
	<path d="M743,894.4c-16.1-26.9-30.7-48-42-70.7c-52.8-106.2-35-218.7,46.4-304.8c6.5-6.9,14-21.8,11-26.9
		c-7.2-12.1-19.9-28.4-31.5-29.3c-45.1-3.4-90.6-2.1-135.9-0.8c-8.9,0.3-19.8,6.7-25.8,13.7c-49.4,57.4-97.8,115.6-146.4,173.6
		c-1.8,2.2-2.5,5.4-5.2,11.5c10.8,1.1,19.6,2.7,28.4,2.8c45.3,0.3,90.7,0,136,0.3c9.3,0.1,19,0.3,27.9,2.6
		c19.8,5.3,32.3,24,30.1,44.6c-2.1,20.3-12.8,34-34.2,34.7c-20.3,0.6-28.2,11.4-33.1,29.4c-19.7,72.1-61.1,130.2-128.9,161.2
		c-41.6,19-89.4,30.3-135.2,33.1c-84.1,5.1-168.8,1.6-253.2,1.3c-8.5,0-17.2-1.4-25.4-3.7c-16.5-4.6-23.7-16.8-24.4-33.2
		c-0.7-16.6,5.7-29.9,22.2-34.4c14.1-3.8,29.1-5.1,43.8-6.1c15.2-1,30.6-0.2,52.1-0.2c-7.4-13.1-10.7-20.5-15.3-27
		c-77.9-108.6-71.8-241.7,15.8-342.7c1.5-1.8,3.1-3.6,4.8-5.1c61.5-55.5,56.8-48.1,102.2-2.6c34,34,33.6,33.1-5.2,61.2
		c-47.2,34.2-70.4,81.9-65.5,139.6c5.5,64.5,40.2,109.6,100.7,135c77.2,32.4,161.5-8.9,193.8-69.2c15.3-28.6,11.8-35.8-20.1-36
		c-36-0.3-71.9-0.2-107.9-0.2c-19.2,0-35.9-5.3-44.2-24.4c-8.3-19-0.5-35.1,11.5-49.5c64.9-77.8,130.3-155.3,194.7-233.6
		c6.5-7.9,12.9-23.6,9.3-30.2c-5.5-9.9-19.1-19.3-30.5-21.1c-22.2-3.6-45.2-0.9-67.8-2.3c-28.3-1.7-45.6-17.1-47.1-39.8
		c-1.7-24.2,13.6-43.6,40.4-45.2c35.8-2.1,72.3-3.9,107.6,0.9c16.7,2.2,32.3,18.8,46.8,30.9c14.1,11.8,24.4,34.2,39.5,37.5
		c29.1,6.4,60.4,3.1,90.8,2.3c2.3-0.1,7.8-13.9,5.7-18.7c-6.5-14.9-16.1-28.5-24.2-42.7c-28-48.5-9.6-81.4,46.1-81.8
		c51.6-0.3,103.2-1,154.8,0.3c67.2,1.8,111.8,41.7,120.4,105.3c3.3,24.5-9.8,45.3-31.6,50.2c-23.3,5.2-42.5-6.2-51.1-30.1
		c-13.7-38.6-19.3-42.7-60.8-43.1c-16.4-0.2-32.9-0.5-49.2,0.3c-20.7,1-23.9,6.5-13.7,24.5c35.1,61.7,70.6,123.2,106.1,184.8
		c29.6,51.4,59.3,102.7,88.7,154.2c15.6,27.4,11.9,55-8.3,66.7c-22.4,13-50.7,3.2-67-24.3c-20.3-34.2-39.7-69-59.8-103.4
		c-2.2-3.8-5.8-6.8-15.6-17.9c-3.9,8.2-6.3,15-10.2,20.9C739,715,789.5,817.8,879.4,852.9c84.9,33.1,176.5-17.4,203-92.3
		c29.3-82.9-8.8-169.8-92.5-203.2c-13.6-5.4-27.9-9-42.1-12.7c-23.6-6.2-39.6-30.9-35.6-56c4.3-27.1,29.5-48.8,58.1-41.4
		c39.4,10.2,81.6,20.5,114.4,42.8c137.3,92.9,152.5,291.8,33.7,405.7c-53.3,51.1-118.9,74-191.9,74.9c-84.4,1.1-168.9,0.4-253.3,0.1
		c-9.2,0-19-1.2-27.5-4.3c-17.2-6.3-26.7-19.5-24.4-38.2c2.4-18.9,15-28.8,33.6-29.8c20.9-1.2,42-0.9,62.9-1.6
		C725.1,896.6,732.4,895.5,743,894.4z"/>
</g>
</svg>
